<svg width="628" height="54" viewBox="0 0 628 54" fill="none" xmlns="http://www.w3.org/2000/svg">
<path d="M0.996094 7.90039C0.996094 12.4707 4.29688 15.2539 8.26172 15.2539C10.2539 15.2539 12.1191 14.668 12.9102 14.0723L13.0371 10.9961H12.5C11.9336 13.5449 10.5078 14.4238 8.41797 14.4238C5.35156 14.4238 3.35938 11.5039 3.35938 7.66602C3.35938 3.97461 5.20508 1.47461 8.39844 1.47461C10.5566 1.47461 11.8945 2.49023 12.4414 4.78516H12.9688L12.8516 1.70898C12.0508 1.12305 10.4688 0.644531 8.23242 0.644531C4.18945 0.644531 0.996094 3.31055 0.996094 7.90039ZM17.7832 0.517578L14.5215 0.898438V1.40625L15.2246 1.58203C15.7812 1.73828 15.8594 1.86523 15.8594 2.38281V13.5156C15.8594 14.1309 15.6934 14.2871 14.5215 14.4238V15H19.1113V14.4238C17.9395 14.2871 17.7832 14.1309 17.7832 13.5156V0.517578ZM23.3203 15.1953C24.7461 15.1953 25.9375 14.5508 26.4551 13.7695C26.6602 14.6582 27.3535 15.1465 28.3203 15.1465C28.9941 15.1465 29.541 14.9316 29.8633 14.707V14.1797C29.7266 14.2383 29.541 14.2676 29.3457 14.2676C28.7598 14.2676 28.291 13.9355 28.291 13.0664V8.1543C28.291 6.08398 26.875 5.15625 24.6973 5.15625C22.5391 5.15625 20.791 6.07422 20.791 7.37305C20.791 7.97852 21.2695 8.42773 21.8652 8.42773C22.4805 8.42773 22.9492 7.98828 22.9492 7.41211C22.9492 6.94336 22.6465 6.55273 22.2559 6.41602C22.7246 6.13281 23.3398 5.98633 24.0137 5.98633C25.4395 5.98633 26.4062 6.61133 26.4062 8.39844V9.26758L24.2188 9.74609C21.582 10.3223 20.4883 11.2207 20.4883 12.7637C20.4883 14.1992 21.6992 15.1953 23.3203 15.1953ZM22.4414 12.4316C22.4414 11.3379 23.125 10.6934 25.0879 10.2539L26.4062 9.9707V13.1738C25.9668 13.8184 25.2246 14.1895 24.3164 14.1895C23.2324 14.1895 22.4414 13.5352 22.4414 12.4316ZM31.0938 7.90039C31.0938 9.41406 32.1875 10.2539 33.9453 10.7617L34.7266 10.9961C36.0645 11.3867 36.6211 11.875 36.6211 12.7734C36.6211 13.7012 35.8105 14.375 34.541 14.375C33.1543 14.375 31.8945 13.5254 31.5332 11.7969H30.9961L31.084 14.3262C31.7773 14.7949 33.0566 15.166 34.5605 15.166C36.5625 15.166 38.3105 14.082 38.3105 12.3242C38.3105 10.752 37.2656 9.86328 35.498 9.35547L34.7266 9.13086C33.5059 8.7793 32.7832 8.34961 32.7832 7.44141C32.7832 6.5332 33.5742 5.95703 34.8047 5.95703C36.084 5.95703 37.0996 6.74805 37.3828 8.27148H37.9199L37.8516 5.83984C37.3242 5.48828 36.2402 5.15625 34.7949 5.15625C32.6074 5.15625 31.0938 6.18164 31.0938 7.90039ZM40.2539 7.90039C40.2539 9.41406 41.3477 10.2539 43.1055 10.7617L43.8867 10.9961C45.2246 11.3867 45.7812 11.875 45.7812 12.7734C45.7812 13.7012 44.9707 14.375 43.7012 14.375C42.3145 14.375 41.0547 13.5254 40.6934 11.7969H40.1562L40.2441 14.3262C40.9375 14.7949 42.2168 15.166 43.7207 15.166C45.7227 15.166 47.4707 14.082 47.4707 12.3242C47.4707 10.752 46.4258 9.86328 44.6582 9.35547L43.8867 9.13086C42.666 8.7793 41.9434 8.34961 41.9434 7.44141C41.9434 6.5332 42.7344 5.95703 43.9648 5.95703C45.2441 5.95703 46.2598 6.74805 46.543 8.27148H47.0801L47.0117 5.83984C46.4844 5.48828 45.4004 5.15625 43.9551 5.15625C41.7676 5.15625 40.2539 6.18164 40.2539 7.90039ZM56.8555 15.1953C58.2812 15.1953 59.4727 14.5508 59.9902 13.7695C60.1953 14.6582 60.8887 15.1465 61.8555 15.1465C62.5293 15.1465 63.0762 14.9316 63.3984 14.707V14.1797C63.2617 14.2383 63.0762 14.2676 62.8809 14.2676C62.2949 14.2676 61.8262 13.9355 61.8262 13.0664V8.1543C61.8262 6.08398 60.4102 5.15625 58.2324 5.15625C56.0742 5.15625 54.3262 6.07422 54.3262 7.37305C54.3262 7.97852 54.8047 8.42773 55.4004 8.42773C56.0156 8.42773 56.4844 7.98828 56.4844 7.41211C56.4844 6.94336 56.1816 6.55273 55.791 6.41602C56.2598 6.13281 56.875 5.98633 57.5488 5.98633C58.9746 5.98633 59.9414 6.61133 59.9414 8.39844V9.26758L57.7539 9.74609C55.1172 10.3223 54.0234 11.2207 54.0234 12.7637C54.0234 14.1992 55.2344 15.1953 56.8555 15.1953ZM55.9766 12.4316C55.9766 11.3379 56.6602 10.6934 58.623 10.2539L59.9414 9.9707V13.1738C59.502 13.8184 58.7598 14.1895 57.8516 14.1895C56.7676 14.1895 55.9766 13.5352 55.9766 12.4316ZM74.4629 10.0684C74.4629 6.97266 72.5977 5.15625 70.4785 5.15625C69.0625 5.15625 67.7734 5.86914 67.2363 6.91406V5.25391L64.0234 5.63477V6.14258L64.7168 6.31836C65.2734 6.47461 65.3516 6.5918 65.3516 7.11914V18.0176C65.3516 18.6328 65.2148 18.7793 64.0234 18.916V19.4922H68.75V18.916C67.4219 18.7793 67.2754 18.6426 67.2754 17.9004V14.1211C67.8027 14.7363 68.7305 15.1953 69.8535 15.1953C72.4219 15.1953 74.4629 13.125 74.4629 10.0684ZM72.4512 10.2734C72.4512 12.7734 71.2109 14.3555 69.4336 14.3555C68.418 14.3555 67.5977 13.8867 67.2754 13.291V7.43164C67.6953 6.66992 68.4961 6.25 69.5215 6.25C71.2695 6.25 72.4512 7.79297 72.4512 10.2734ZM77.1484 12.3633C77.1484 14.4922 78.3789 15.1953 79.707 15.1953C80.6738 15.1953 81.6895 14.7754 82.1094 14.3359V13.7598C81.7676 14.0039 81.2402 14.1895 80.7031 14.1895C79.7656 14.1895 79.0723 13.6719 79.0723 12.0605V6.16211L81.9531 6.23047V5.35156L79.0723 5.43945V3.50586H78.7988L75.8594 5.83008V6.23047H77.1484V12.3633ZM83.2812 10.2246C83.2812 13.2812 85.3223 15.1953 88.0566 15.1953C89.6875 15.1953 90.9863 14.5801 91.6504 13.7305V13.1543C91.0645 13.7305 90.1172 14.1016 89.0918 14.1016C86.8359 14.1016 85.332 12.4121 85.2441 9.85352H91.8262C91.8457 9.69727 91.8555 9.46289 91.8555 9.24805C91.8555 6.76758 90.4102 5.16602 87.8516 5.16602C85.1172 5.16602 83.2812 7.26562 83.2812 10.2246ZM87.832 5.95703C89.2383 5.95703 90 7.10938 90 8.98438C90 9.05273 90 9.11133 90 9.16992L85.2539 9.18945C85.3711 7.03125 86.377 5.95703 87.832 5.95703ZM96.5723 5.25391L93.3496 5.63477V6.14258L94.0527 6.31836C94.6094 6.47461 94.6875 6.5918 94.6875 7.11914V13.5156C94.6875 14.1309 94.5215 14.2871 93.3496 14.4238V15H97.8613V14.4238C96.748 14.2871 96.6113 14.1504 96.6113 13.5645V7.37305C97.002 6.73828 97.7832 6.25 98.8867 6.25C100.303 6.25 101.162 7.08984 101.162 8.71094V13.5645C101.162 14.1504 101.025 14.2871 99.9121 14.4238V15H104.424V14.4238C103.232 14.2871 103.096 14.1309 103.096 13.5156V8.22266C103.096 6.23047 101.729 5.15625 99.7656 5.15625C98.2812 5.15625 97.1289 5.84961 96.5723 6.80664V5.25391ZM106.621 12.3633C106.621 14.4922 107.852 15.1953 109.18 15.1953C110.146 15.1953 111.162 14.7754 111.582 14.3359V13.7598C111.24 14.0039 110.713 14.1895 110.176 14.1895C109.238 14.1895 108.545 13.6719 108.545 12.0605V6.16211L111.426 6.23047V5.35156L108.545 5.43945V3.50586H108.271L105.332 5.83008V6.23047H106.621V12.3633ZM118.34 12.3633C118.34 14.4922 119.57 15.1953 120.898 15.1953C121.865 15.1953 122.881 14.7754 123.301 14.3359V13.7598C122.959 14.0039 122.432 14.1895 121.895 14.1895C120.957 14.1895 120.264 13.6719 120.264 12.0605V6.16211L123.145 6.23047V5.35156L120.264 5.43945V3.50586H119.99L117.051 5.83008V6.23047H118.34V12.3633ZM127.246 15.1953C128.672 15.1953 129.863 14.5508 130.381 13.7695C130.586 14.6582 131.279 15.1465 132.246 15.1465C132.92 15.1465 133.467 14.9316 133.789 14.707V14.1797C133.652 14.2383 133.467 14.2676 133.271 14.2676C132.686 14.2676 132.217 13.9355 132.217 13.0664V8.1543C132.217 6.08398 130.801 5.15625 128.623 5.15625C126.465 5.15625 124.717 6.07422 124.717 7.37305C124.717 7.97852 125.195 8.42773 125.791 8.42773C126.406 8.42773 126.875 7.98828 126.875 7.41211C126.875 6.94336 126.572 6.55273 126.182 6.41602C126.65 6.13281 127.266 5.98633 127.939 5.98633C129.365 5.98633 130.332 6.61133 130.332 8.39844V9.26758L128.145 9.74609C125.508 10.3223 124.414 11.2207 124.414 12.7637C124.414 14.1992 125.625 15.1953 127.246 15.1953ZM126.367 12.4316C126.367 11.3379 127.051 10.6934 129.014 10.2539L130.332 9.9707V13.1738C129.893 13.8184 129.15 14.1895 128.242 14.1895C127.158 14.1895 126.367 13.5352 126.367 12.4316ZM139.629 15.1953C141.26 15.1953 142.549 14.5801 143.213 13.7402V13.1543C142.617 13.7207 141.689 14.1016 140.674 14.1016C138.496 14.1016 136.953 12.4609 136.953 9.83398C136.953 7.46094 138.291 5.98633 140.146 5.98633C140.84 5.98633 141.387 6.12305 141.787 6.40625C141.318 6.48438 140.957 6.92383 140.957 7.45117C140.957 8.04688 141.416 8.52539 142.031 8.52539C142.627 8.52539 143.105 8.05664 143.105 7.41211C143.105 6.21094 142.061 5.15625 139.863 5.15625C137.148 5.15625 134.922 7.1582 134.922 10.2246C134.922 13.2324 136.973 15.1953 139.629 15.1953ZM146.484 3.33008C147.158 3.33008 147.695 2.8125 147.695 2.14844C147.695 1.48438 147.158 0.976562 146.484 0.976562C145.811 0.976562 145.273 1.48438 145.273 2.14844C145.273 2.8125 145.811 3.33008 146.484 3.33008ZM147.646 5.25391L144.385 5.63477V6.14258L145.088 6.31836C145.645 6.47461 145.723 6.5918 145.723 7.11914V13.5156C145.723 14.1309 145.557 14.2871 144.385 14.4238V15H148.975V14.4238C147.803 14.2871 147.646 14.1309 147.646 13.5156V5.25391ZM151.211 12.3633C151.211 14.4922 152.441 15.1953 153.77 15.1953C154.736 15.1953 155.752 14.7754 156.172 14.3359V13.7598C155.83 14.0039 155.303 14.1895 154.766 14.1895C153.828 14.1895 153.135 13.6719 153.135 12.0605V6.16211L156.016 6.23047V5.35156L153.135 5.43945V3.50586H152.861L149.922 5.83008V6.23047H151.211V12.3633ZM159.082 3.33008C159.756 3.33008 160.293 2.8125 160.293 2.14844C160.293 1.48438 159.756 0.976562 159.082 0.976562C158.408 0.976562 157.871 1.48438 157.871 2.14844C157.871 2.8125 158.408 3.33008 159.082 3.33008ZM160.244 5.25391L156.982 5.63477V6.14258L157.686 6.31836C158.242 6.47461 158.32 6.5918 158.32 7.11914V13.5156C158.32 14.1309 158.154 14.2871 156.982 14.4238V15H161.572V14.4238C160.4 14.2871 160.244 14.1309 160.244 13.5156V5.25391ZM167.852 7.90039C167.852 9.41406 168.945 10.2539 170.703 10.7617L171.484 10.9961C172.822 11.3867 173.379 11.875 173.379 12.7734C173.379 13.7012 172.568 14.375 171.299 14.375C169.912 14.375 168.652 13.5254 168.291 11.7969H167.754L167.842 14.3262C168.535 14.7949 169.814 15.166 171.318 15.166C173.32 15.166 175.068 14.082 175.068 12.3242C175.068 10.752 174.023 9.86328 172.256 9.35547L171.484 9.13086C170.264 8.7793 169.541 8.34961 169.541 7.44141C169.541 6.5332 170.332 5.95703 171.562 5.95703C172.842 5.95703 173.857 6.74805 174.141 8.27148H174.678L174.609 5.83984C174.082 5.48828 172.998 5.15625 171.553 5.15625C169.365 5.15625 167.852 6.18164 167.852 7.90039ZM181.768 15.1953C184.59 15.1953 186.758 13.125 186.758 10.1465C186.758 7.17773 184.639 5.15625 181.895 5.15625C179.072 5.15625 176.914 7.22656 176.914 10.2148C176.914 13.1738 179.033 15.1953 181.768 15.1953ZM181.895 14.4043C180.205 14.4043 179.004 12.6855 179.004 10.0488C179.004 7.53906 180.029 5.95703 181.768 5.95703C183.457 5.95703 184.658 7.66602 184.658 10.3027C184.658 12.8223 183.633 14.4043 181.895 14.4043ZM193.34 15.1953C194.971 15.1953 196.26 14.5801 196.924 13.7402V13.1543C196.328 13.7207 195.4 14.1016 194.385 14.1016C192.207 14.1016 190.664 12.4609 190.664 9.83398C190.664 7.46094 192.002 5.98633 193.857 5.98633C194.551 5.98633 195.098 6.12305 195.498 6.40625C195.029 6.48438 194.668 6.92383 194.668 7.45117C194.668 8.04688 195.127 8.52539 195.742 8.52539C196.338 8.52539 196.816 8.05664 196.816 7.41211C196.816 6.21094 195.771 5.15625 193.574 5.15625C190.859 5.15625 188.633 7.1582 188.633 10.2246C188.633 13.2324 190.684 15.1953 193.34 15.1953ZM200.195 3.33008C200.869 3.33008 201.406 2.8125 201.406 2.14844C201.406 1.48438 200.869 0.976562 200.195 0.976562C199.521 0.976562 198.984 1.48438 198.984 2.14844C198.984 2.8125 199.521 3.33008 200.195 3.33008ZM201.357 5.25391L198.096 5.63477V6.14258L198.799 6.31836C199.355 6.47461 199.434 6.5918 199.434 7.11914V13.5156C199.434 14.1309 199.268 14.2871 198.096 14.4238V15H202.686V14.4238C201.514 14.2871 201.357 14.1309 201.357 13.5156V5.25391ZM208.955 15.1953C211.777 15.1953 213.945 13.125 213.945 10.1465C213.945 7.17773 211.826 5.15625 209.082 5.15625C206.26 5.15625 204.102 7.22656 204.102 10.2148C204.102 13.1738 206.221 15.1953 208.955 15.1953ZM209.082 14.4043C207.393 14.4043 206.191 12.6855 206.191 10.0488C206.191 7.53906 207.217 5.95703 208.955 5.95703C210.645 5.95703 211.846 7.66602 211.846 10.3027C211.846 12.8223 210.82 14.4043 209.082 14.4043ZM215.918 7.90039C215.918 9.41406 217.012 10.2539 218.77 10.7617L219.551 10.9961C220.889 11.3867 221.445 11.875 221.445 12.7734C221.445 13.7012 220.635 14.375 219.365 14.375C217.979 14.375 216.719 13.5254 216.357 11.7969H215.82L215.908 14.3262C216.602 14.7949 217.881 15.166 219.385 15.166C221.387 15.166 223.135 14.082 223.135 12.3242C223.135 10.752 222.09 9.86328 220.322 9.35547L219.551 9.13086C218.33 8.7793 217.607 8.34961 217.607 7.44141C217.607 6.5332 218.398 5.95703 219.629 5.95703C220.908 5.95703 221.924 6.74805 222.207 8.27148H222.744L222.676 5.83984C222.148 5.48828 221.064 5.15625 219.619 5.15625C217.432 5.15625 215.918 6.18164 215.918 7.90039ZM224.98 10.2734C224.98 13.3789 226.846 15.1855 228.965 15.1855C230.381 15.1855 231.67 14.4824 232.207 13.4473L232.158 17.9004C232.158 18.6426 232.021 18.7793 230.693 18.916V19.4922H235.42V18.916C234.229 18.7793 234.092 18.6328 234.092 18.0176V5.35156H233.447L232.48 6.49414C231.973 5.75195 230.928 5.14648 229.629 5.14648C227.031 5.14648 224.98 7.2168 224.98 10.2734ZM226.982 10.0781C226.982 7.56836 228.232 5.98633 230.039 5.98633C231.055 5.98633 231.826 6.49414 232.158 7.05078V12.9199C231.748 13.6719 230.938 14.0918 229.912 14.0918C228.164 14.0918 226.982 12.5586 226.982 10.0781ZM239.297 5.25391L236.035 5.63477V6.14258L236.738 6.31836C237.285 6.47461 237.373 6.5918 237.373 7.11914V12.0703C237.373 14.1113 238.711 15.1953 240.645 15.1953C242.109 15.1953 243.213 14.502 243.77 13.5449V15.0977L247.002 14.707V14.209L246.309 14.0234C245.752 13.877 245.674 13.75 245.674 13.2227V5.25391L242.412 5.63477V6.14258L243.115 6.31836C243.662 6.47461 243.74 6.5918 243.74 7.11914V12.9785C243.359 13.6133 242.598 14.1016 241.582 14.1016C240.127 14.1016 239.297 13.252 239.297 11.5918V5.25391ZM255.957 15.1953C257.383 15.1953 258.574 14.5508 259.092 13.7695C259.297 14.6582 259.99 15.1465 260.957 15.1465C261.631 15.1465 262.178 14.9316 262.5 14.707V14.1797C262.363 14.2383 262.178 14.2676 261.982 14.2676C261.396 14.2676 260.928 13.9355 260.928 13.0664V8.1543C260.928 6.08398 259.512 5.15625 257.334 5.15625C255.176 5.15625 253.428 6.07422 253.428 7.37305C253.428 7.97852 253.906 8.42773 254.502 8.42773C255.117 8.42773 255.586 7.98828 255.586 7.41211C255.586 6.94336 255.283 6.55273 254.893 6.41602C255.361 6.13281 255.977 5.98633 256.65 5.98633C258.076 5.98633 259.043 6.61133 259.043 8.39844V9.26758L256.855 9.74609C254.219 10.3223 253.125 11.2207 253.125 12.7637C253.125 14.1992 254.336 15.1953 255.957 15.1953ZM255.078 12.4316C255.078 11.3379 255.762 10.6934 257.725 10.2539L259.043 9.9707V13.1738C258.604 13.8184 257.861 14.1895 256.953 14.1895C255.869 14.1895 255.078 13.5352 255.078 12.4316ZM263.633 10.2832C263.633 13.3887 265.498 15.1953 267.617 15.1953C269.033 15.1953 270.322 14.502 270.85 13.4668V15.0977L274.072 14.707V14.209L273.389 14.0234C272.822 13.877 272.744 13.75 272.744 13.2227V0.507812L269.482 0.898438V1.40625L270.186 1.58203C270.732 1.73828 270.811 1.86523 270.811 2.38281V6.23047C270.283 5.60547 269.365 5.15625 268.242 5.15625C265.674 5.15625 263.633 7.22656 263.633 10.2832ZM265.635 10.0879C265.635 7.57812 266.885 5.99609 268.662 5.99609C269.678 5.99609 270.498 6.46484 270.811 7.06055V12.9199C270.4 13.6816 269.59 14.1016 268.564 14.1016C266.816 14.1016 265.635 12.5684 265.635 10.0879ZM283.174 0.517578L279.912 0.898438V1.40625L280.615 1.58203C281.172 1.73828 281.25 1.86523 281.25 2.38281V13.5156C281.25 14.1309 281.084 14.2871 279.912 14.4238V15H284.502V14.4238C283.33 14.2871 283.174 14.1309 283.174 13.5156V0.517578ZM287.676 3.33008C288.35 3.33008 288.887 2.8125 288.887 2.14844C288.887 1.48438 288.35 0.976562 287.676 0.976562C287.002 0.976562 286.465 1.48438 286.465 2.14844C286.465 2.8125 287.002 3.33008 287.676 3.33008ZM288.838 5.25391L285.576 5.63477V6.14258L286.279 6.31836C286.836 6.47461 286.914 6.5918 286.914 7.11914V13.5156C286.914 14.1309 286.748 14.2871 285.576 14.4238V15H290.166V14.4238C288.994 14.2871 288.838 14.1309 288.838 13.5156V5.25391ZM292.402 12.3633C292.402 14.4922 293.633 15.1953 294.961 15.1953C295.928 15.1953 296.943 14.7754 297.363 14.3359V13.7598C297.021 14.0039 296.494 14.1895 295.957 14.1895C295.02 14.1895 294.326 13.6719 294.326 12.0605V6.16211L297.207 6.23047V5.35156L294.326 5.43945V3.50586H294.053L291.113 5.83008V6.23047H292.402V12.3633ZM303.389 15.1953C306.211 15.1953 308.379 13.125 308.379 10.1465C308.379 7.17773 306.26 5.15625 303.516 5.15625C300.693 5.15625 298.535 7.22656 298.535 10.2148C298.535 13.1738 300.654 15.1953 303.389 15.1953ZM303.516 14.4043C301.826 14.4043 300.625 12.6855 300.625 10.0488C300.625 7.53906 301.65 5.95703 303.389 5.95703C305.078 5.95703 306.279 7.66602 306.279 10.3027C306.279 12.8223 305.254 14.4043 303.516 14.4043ZM313.115 5.25391L309.893 5.63477V6.14258L310.596 6.31836C311.152 6.47461 311.23 6.5918 311.23 7.11914V13.5254C311.23 14.1406 311.084 14.2871 309.893 14.4238V15H314.619V14.4238C313.301 14.2871 313.154 14.1504 313.154 13.4082V7.75391C313.652 7.19727 314.834 6.81641 315.898 6.81641C316.289 6.81641 316.66 6.85547 316.855 6.91406C316.963 6.76758 317.051 6.49414 317.051 6.2207C317.051 5.67383 316.758 5.19531 316.016 5.19531C315.156 5.19531 314.287 5.89844 313.115 7.28516V5.25391ZM321.055 15.1953C322.48 15.1953 323.672 14.5508 324.189 13.7695C324.395 14.6582 325.088 15.1465 326.055 15.1465C326.729 15.1465 327.275 14.9316 327.598 14.707V14.1797C327.461 14.2383 327.275 14.2676 327.08 14.2676C326.494 14.2676 326.025 13.9355 326.025 13.0664V8.1543C326.025 6.08398 324.609 5.15625 322.432 5.15625C320.273 5.15625 318.525 6.07422 318.525 7.37305C318.525 7.97852 319.004 8.42773 319.6 8.42773C320.215 8.42773 320.684 7.98828 320.684 7.41211C320.684 6.94336 320.381 6.55273 319.99 6.41602C320.459 6.13281 321.074 5.98633 321.748 5.98633C323.174 5.98633 324.141 6.61133 324.141 8.39844V9.26758L321.953 9.74609C319.316 10.3223 318.223 11.2207 318.223 12.7637C318.223 14.1992 319.434 15.1953 321.055 15.1953ZM320.176 12.4316C320.176 11.3379 320.859 10.6934 322.822 10.2539L324.141 9.9707V13.1738C323.701 13.8184 322.959 14.1895 322.051 14.1895C320.967 14.1895 320.176 13.5352 320.176 12.4316ZM334.316 12.3633C334.316 14.4922 335.547 15.1953 336.875 15.1953C337.842 15.1953 338.857 14.7754 339.277 14.3359V13.7598C338.936 14.0039 338.408 14.1895 337.871 14.1895C336.934 14.1895 336.24 13.6719 336.24 12.0605V6.16211L339.121 6.23047V5.35156L336.24 5.43945V3.50586H335.967L333.027 5.83008V6.23047H334.316V12.3633ZM345.303 15.1953C348.125 15.1953 350.293 13.125 350.293 10.1465C350.293 7.17773 348.174 5.15625 345.43 5.15625C342.607 5.15625 340.449 7.22656 340.449 10.2148C340.449 13.1738 342.568 15.1953 345.303 15.1953ZM345.43 14.4043C343.74 14.4043 342.539 12.6855 342.539 10.0488C342.539 7.53906 343.564 5.95703 345.303 5.95703C346.992 5.95703 348.193 7.66602 348.193 10.3027C348.193 12.8223 347.168 14.4043 345.43 14.4043ZM355.029 5.25391L351.807 5.63477V6.14258L352.51 6.31836C353.066 6.47461 353.145 6.5918 353.145 7.11914V13.5254C353.145 14.1406 352.998 14.2871 351.807 14.4238V15H356.533V14.4238C355.215 14.2871 355.068 14.1504 355.068 13.4082V7.75391C355.566 7.19727 356.748 6.81641 357.812 6.81641C358.203 6.81641 358.574 6.85547 358.77 6.91406C358.877 6.76758 358.965 6.49414 358.965 6.2207C358.965 5.67383 358.672 5.19531 357.93 5.19531C357.07 5.19531 356.201 5.89844 355.029 7.28516V5.25391ZM359.727 10.2734C359.727 13.3789 361.592 15.1855 363.711 15.1855C365.127 15.1855 366.416 14.4824 366.953 13.4473L366.904 17.9004C366.904 18.6426 366.768 18.7793 365.439 18.916V19.4922H370.166V18.916C368.975 18.7793 368.838 18.6328 368.838 18.0176V5.35156H368.193L367.227 6.49414C366.719 5.75195 365.674 5.14648 364.375 5.14648C361.777 5.14648 359.727 7.2168 359.727 10.2734ZM361.729 10.0781C361.729 7.56836 362.979 5.98633 364.785 5.98633C365.801 5.98633 366.572 6.49414 366.904 7.05078V12.9199C366.494 13.6719 365.684 14.0918 364.658 14.0918C362.91 14.0918 361.729 12.5586 361.729 10.0781ZM374.043 5.25391L370.781 5.63477V6.14258L371.484 6.31836C372.031 6.47461 372.119 6.5918 372.119 7.11914V12.0703C372.119 14.1113 373.457 15.1953 375.391 15.1953C376.855 15.1953 377.959 14.502 378.516 13.5449V15.0977L381.748 14.707V14.209L381.055 14.0234C380.498 13.877 380.42 13.75 380.42 13.2227V5.25391L377.158 5.63477V6.14258L377.861 6.31836C378.408 6.47461 378.486 6.5918 378.486 7.11914V12.9785C378.105 13.6133 377.344 14.1016 376.328 14.1016C374.873 14.1016 374.043 13.252 374.043 11.5918V5.25391ZM383.164 10.2246C383.164 13.2812 385.205 15.1953 387.939 15.1953C389.57 15.1953 390.869 14.5801 391.533 13.7305V13.1543C390.947 13.7305 390 14.1016 388.975 14.1016C386.719 14.1016 385.215 12.4121 385.127 9.85352H391.709C391.729 9.69727 391.738 9.46289 391.738 9.24805C391.738 6.76758 390.293 5.16602 387.734 5.16602C385 5.16602 383.164 7.26562 383.164 10.2246ZM387.715 5.95703C389.121 5.95703 389.883 7.10938 389.883 8.98438C389.883 9.05273 389.883 9.11133 389.883 9.16992L385.137 9.18945C385.254 7.03125 386.26 5.95703 387.715 5.95703ZM396.455 5.25391L393.232 5.63477V6.14258L393.936 6.31836C394.492 6.47461 394.57 6.5918 394.57 7.11914V13.5156C394.57 14.1309 394.404 14.2871 393.232 14.4238V15H397.744V14.4238C396.631 14.2871 396.494 14.1504 396.494 13.5645V7.37305C396.885 6.73828 397.666 6.25 398.77 6.25C400.186 6.25 401.045 7.08984 401.045 8.71094V13.5645C401.045 14.1504 400.908 14.2871 399.795 14.4238V15H404.307V14.4238C403.115 14.2871 402.979 14.1309 402.979 13.5156V8.22266C402.979 6.23047 401.611 5.15625 399.648 5.15625C398.164 5.15625 397.012 5.84961 396.455 6.80664V5.25391ZM406.504 12.3633C406.504 14.4922 407.734 15.1953 409.062 15.1953C410.029 15.1953 411.045 14.7754 411.465 14.3359V13.7598C411.123 14.0039 410.596 14.1895 410.059 14.1895C409.121 14.1895 408.428 13.6719 408.428 12.0605V6.16211L411.309 6.23047V5.35156L408.428 5.43945V3.50586H408.154L405.215 5.83008V6.23047H406.504V12.3633ZM427.334 10.0684C427.334 6.97266 425.469 5.15625 423.35 5.15625C421.934 5.15625 420.645 5.86914 420.107 6.91406V5.25391L416.895 5.63477V6.14258L417.588 6.31836C418.145 6.47461 418.223 6.5918 418.223 7.11914V18.0176C418.223 18.6328 418.086 18.7793 416.895 18.916V19.4922H421.621V18.916C420.293 18.7793 420.146 18.6426 420.146 17.9004V14.1211C420.674 14.7363 421.602 15.1953 422.725 15.1953C425.293 15.1953 427.334 13.125 427.334 10.0684ZM425.322 10.2734C425.322 12.7734 424.082 14.3555 422.305 14.3555C421.289 14.3555 420.469 13.8867 420.146 13.291V7.43164C420.566 6.66992 421.367 6.25 422.393 6.25C424.141 6.25 425.322 7.79297 425.322 10.2734ZM429.219 10.2246C429.219 13.2812 431.26 15.1953 433.994 15.1953C435.625 15.1953 436.924 14.5801 437.588 13.7305V13.1543C437.002 13.7305 436.055 14.1016 435.029 14.1016C432.773 14.1016 431.27 12.4121 431.182 9.85352H437.764C437.783 9.69727 437.793 9.46289 437.793 9.24805C437.793 6.76758 436.348 5.16602 433.789 5.16602C431.055 5.16602 429.219 7.26562 429.219 10.2246ZM433.77 5.95703C435.176 5.95703 435.938 7.10938 435.938 8.98438C435.938 9.05273 435.938 9.11133 435.938 9.16992L431.191 9.18945C431.309 7.03125 432.314 5.95703 433.77 5.95703ZM442.51 5.25391L439.287 5.63477V6.14258L439.99 6.31836C440.547 6.47461 440.625 6.5918 440.625 7.11914V13.5254C440.625 14.1406 440.479 14.2871 439.287 14.4238V15H444.014V14.4238C442.695 14.2871 442.549 14.1504 442.549 13.4082V7.75391C443.047 7.19727 444.229 6.81641 445.293 6.81641C445.684 6.81641 446.055 6.85547 446.25 6.91406C446.357 6.76758 446.445 6.49414 446.445 6.2207C446.445 5.67383 446.152 5.19531 445.41 5.19531C444.551 5.19531 443.682 5.89844 442.51 7.28516V5.25391ZM457.246 15.1953C458.877 15.1953 460.166 14.5801 460.83 13.7402V13.1543C460.234 13.7207 459.307 14.1016 458.291 14.1016C456.113 14.1016 454.57 12.4609 454.57 9.83398C454.57 7.46094 455.908 5.98633 457.764 5.98633C458.457 5.98633 459.004 6.12305 459.404 6.40625C458.936 6.48438 458.574 6.92383 458.574 7.45117C458.574 8.04688 459.033 8.52539 459.648 8.52539C460.244 8.52539 460.723 8.05664 460.723 7.41211C460.723 6.21094 459.678 5.15625 457.48 5.15625C454.766 5.15625 452.539 7.1582 452.539 10.2246C452.539 13.2324 454.59 15.1953 457.246 15.1953ZM467.217 15.1953C470.039 15.1953 472.207 13.125 472.207 10.1465C472.207 7.17773 470.088 5.15625 467.344 5.15625C464.521 5.15625 462.363 7.22656 462.363 10.2148C462.363 13.1738 464.482 15.1953 467.217 15.1953ZM467.344 14.4043C465.654 14.4043 464.453 12.6855 464.453 10.0488C464.453 7.53906 465.479 5.95703 467.217 5.95703C468.906 5.95703 470.107 7.66602 470.107 10.3027C470.107 12.8223 469.082 14.4043 467.344 14.4043ZM476.943 5.25391L473.721 5.63477V6.14258L474.424 6.31836C474.98 6.47461 475.059 6.5918 475.059 7.11914V13.5156C475.059 14.1309 474.893 14.2871 473.721 14.4238V15H478.232V14.4238C477.119 14.2871 476.982 14.1504 476.982 13.5645V7.37305C477.373 6.73828 478.154 6.25 479.258 6.25C480.674 6.25 481.533 7.08984 481.533 8.71094V13.5645C481.533 14.1504 481.396 14.2871 480.283 14.4238V15H484.795V14.4238C483.604 14.2871 483.467 14.1309 483.467 13.5156V8.22266C483.467 6.23047 482.1 5.15625 480.137 5.15625C478.652 5.15625 477.5 5.84961 476.943 6.80664V5.25391ZM488.828 5.25391L485.566 5.63477V6.14258L486.27 6.31836C486.816 6.47461 486.904 6.5918 486.904 7.11914V12.0703C486.904 14.1113 488.242 15.1953 490.176 15.1953C491.641 15.1953 492.744 14.502 493.301 13.5449V15.0977L496.533 14.707V14.209L495.84 14.0234C495.283 13.877 495.205 13.75 495.205 13.2227V5.25391L491.943 5.63477V6.14258L492.646 6.31836C493.193 6.47461 493.271 6.5918 493.271 7.11914V12.9785C492.891 13.6133 492.129 14.1016 491.113 14.1016C489.658 14.1016 488.828 13.252 488.828 11.5918V5.25391ZM507.734 10.0684C507.734 6.96289 505.869 5.15625 503.76 5.15625C502.354 5.15625 501.074 5.83984 500.547 6.85547L500.557 0.507812L497.295 0.898438V1.40625L497.998 1.58203C498.545 1.73828 498.623 1.86523 498.623 2.38281V15H499.258L500.234 13.8477C500.732 14.5996 501.787 15.1953 503.086 15.1953C505.684 15.1953 507.734 13.125 507.734 10.0684ZM505.732 10.2734C505.732 12.7734 504.482 14.3555 502.676 14.3555C501.67 14.3555 500.889 13.8574 500.557 13.291V7.43164C500.977 6.66992 501.768 6.25 502.803 6.25C504.541 6.25 505.732 7.79297 505.732 10.2734ZM511.348 3.33008C512.021 3.33008 512.559 2.8125 512.559 2.14844C512.559 1.48438 512.021 0.976562 511.348 0.976562C510.674 0.976562 510.137 1.48438 510.137 2.14844C510.137 2.8125 510.674 3.33008 511.348 3.33008ZM512.51 5.25391L509.248 5.63477V6.14258L509.951 6.31836C510.508 6.47461 510.586 6.5918 510.586 7.11914V13.5156C510.586 14.1309 510.42 14.2871 509.248 14.4238V15H513.838V14.4238C512.666 14.2871 512.51 14.1309 512.51 13.5156V5.25391ZM518.027 15.1953C519.453 15.1953 520.645 14.5508 521.162 13.7695C521.367 14.6582 522.061 15.1465 523.027 15.1465C523.701 15.1465 524.248 14.9316 524.57 14.707V14.1797C524.434 14.2383 524.248 14.2676 524.053 14.2676C523.467 14.2676 522.998 13.9355 522.998 13.0664V8.1543C522.998 6.08398 521.582 5.15625 519.404 5.15625C517.246 5.15625 515.498 6.07422 515.498 7.37305C515.498 7.97852 515.977 8.42773 516.572 8.42773C517.188 8.42773 517.656 7.98828 517.656 7.41211C517.656 6.94336 517.354 6.55273 516.963 6.41602C517.432 6.13281 518.047 5.98633 518.721 5.98633C520.146 5.98633 521.113 6.61133 521.113 8.39844V9.26758L518.926 9.74609C516.289 10.3223 515.195 11.2207 515.195 12.7637C515.195 14.1992 516.406 15.1953 518.027 15.1953ZM517.148 12.4316C517.148 11.3379 517.832 10.6934 519.795 10.2539L521.113 9.9707V13.1738C520.674 13.8184 519.932 14.1895 519.023 14.1895C517.939 14.1895 517.148 13.5352 517.148 12.4316ZM533.33 5.25391L530.107 5.63477V6.14258L530.811 6.31836C531.367 6.47461 531.445 6.5918 531.445 7.11914V13.5156C531.445 14.1309 531.279 14.2871 530.107 14.4238V15H534.619V14.4238C533.506 14.2871 533.369 14.1504 533.369 13.5645V7.37305C533.76 6.73828 534.541 6.25 535.645 6.25C537.061 6.25 537.92 7.08984 537.92 8.71094V13.5645C537.92 14.1504 537.783 14.2871 536.67 14.4238V15H541.182V14.4238C539.99 14.2871 539.854 14.1309 539.854 13.5156V8.22266C539.854 6.23047 538.486 5.15625 536.523 5.15625C535.039 5.15625 533.887 5.84961 533.33 6.80664V5.25391ZM547.412 15.1953C550.234 15.1953 552.402 13.125 552.402 10.1465C552.402 7.17773 550.283 5.15625 547.539 5.15625C544.717 5.15625 542.559 7.22656 542.559 10.2148C542.559 13.1738 544.678 15.1953 547.412 15.1953ZM547.539 14.4043C545.85 14.4043 544.648 12.6855 544.648 10.0488C544.648 7.53906 545.674 5.95703 547.412 5.95703C549.102 5.95703 550.303 7.66602 550.303 10.3027C550.303 12.8223 549.277 14.4043 547.539 14.4043ZM554.375 7.90039C554.375 9.41406 555.469 10.2539 557.227 10.7617L558.008 10.9961C559.346 11.3867 559.902 11.875 559.902 12.7734C559.902 13.7012 559.092 14.375 557.822 14.375C556.436 14.375 555.176 13.5254 554.814 11.7969H554.277L554.365 14.3262C555.059 14.7949 556.338 15.166 557.842 15.166C559.844 15.166 561.592 14.082 561.592 12.3242C561.592 10.752 560.547 9.86328 558.779 9.35547L558.008 9.13086C556.787 8.7793 556.064 8.34961 556.064 7.44141C556.064 6.5332 556.855 5.95703 558.086 5.95703C559.365 5.95703 560.381 6.74805 560.664 8.27148H561.201L561.133 5.83984C560.605 5.48828 559.521 5.15625 558.076 5.15625C555.889 5.15625 554.375 6.18164 554.375 7.90039ZM564.258 12.3633C564.258 14.4922 565.488 15.1953 566.816 15.1953C567.783 15.1953 568.799 14.7754 569.219 14.3359V13.7598C568.877 14.0039 568.35 14.1895 567.812 14.1895C566.875 14.1895 566.182 13.6719 566.182 12.0605V6.16211L569.062 6.23047V5.35156L566.182 5.43945V3.50586H565.908L562.969 5.83008V6.23047H564.258V12.3633ZM573.252 5.25391L570.029 5.63477V6.14258L570.732 6.31836C571.289 6.47461 571.367 6.5918 571.367 7.11914V13.5254C571.367 14.1406 571.221 14.2871 570.029 14.4238V15H574.756V14.4238C573.438 14.2871 573.291 14.1504 573.291 13.4082V7.75391C573.789 7.19727 574.971 6.81641 576.035 6.81641C576.426 6.81641 576.797 6.85547 576.992 6.91406C577.1 6.76758 577.188 6.49414 577.188 6.2207C577.188 5.67383 576.895 5.19531 576.152 5.19531C575.293 5.19531 574.424 5.89844 573.252 7.28516V5.25391ZM581.191 15.1953C582.617 15.1953 583.809 14.5508 584.326 13.7695C584.531 14.6582 585.225 15.1465 586.191 15.1465C586.865 15.1465 587.412 14.9316 587.734 14.707V14.1797C587.598 14.2383 587.412 14.2676 587.217 14.2676C586.631 14.2676 586.162 13.9355 586.162 13.0664V8.1543C586.162 6.08398 584.746 5.15625 582.568 5.15625C580.41 5.15625 578.662 6.07422 578.662 7.37305C578.662 7.97852 579.141 8.42773 579.736 8.42773C580.352 8.42773 580.82 7.98828 580.82 7.41211C580.82 6.94336 580.518 6.55273 580.127 6.41602C580.596 6.13281 581.211 5.98633 581.885 5.98633C583.311 5.98633 584.277 6.61133 584.277 8.39844V9.26758L582.09 9.74609C579.453 10.3223 578.359 11.2207 578.359 12.7637C578.359 14.1992 579.57 15.1953 581.191 15.1953ZM580.312 12.4316C580.312 11.3379 580.996 10.6934 582.959 10.2539L584.277 9.9707V13.1738C583.838 13.8184 583.096 14.1895 582.188 14.1895C581.104 14.1895 580.312 13.5352 580.312 12.4316ZM589.277 17.5879C590.576 17.2461 591.836 16.1035 591.836 14.4531C591.836 13.3691 591.299 12.5879 590.42 12.5879C589.551 12.5879 589.092 13.3398 589.092 14.2383C589.912 14.2969 590.488 14.8047 590.488 15.5371C590.488 16.2695 589.873 16.8262 589.062 17.0996L589.277 17.5879ZM608.623 10.0684C608.623 6.97266 606.758 5.15625 604.639 5.15625C603.223 5.15625 601.934 5.86914 601.396 6.91406V5.25391L598.184 5.63477V6.14258L598.877 6.31836C599.434 6.47461 599.512 6.5918 599.512 7.11914V18.0176C599.512 18.6328 599.375 18.7793 598.184 18.916V19.4922H602.91V18.916C601.582 18.7793 601.436 18.6426 601.436 17.9004V14.1211C601.963 14.7363 602.891 15.1953 604.014 15.1953C606.582 15.1953 608.623 13.125 608.623 10.0684ZM606.611 10.2734C606.611 12.7734 605.371 14.3555 603.594 14.3555C602.578 14.3555 601.758 13.8867 601.436 13.291V7.43164C601.855 6.66992 602.656 6.25 603.682 6.25C605.43 6.25 606.611 7.79297 606.611 10.2734ZM610.508 10.2246C610.508 13.2812 612.549 15.1953 615.283 15.1953C616.914 15.1953 618.213 14.5801 618.877 13.7305V13.1543C618.291 13.7305 617.344 14.1016 616.318 14.1016C614.062 14.1016 612.559 12.4121 612.471 9.85352H619.053C619.072 9.69727 619.082 9.46289 619.082 9.24805C619.082 6.76758 617.637 5.16602 615.078 5.16602C612.344 5.16602 610.508 7.26562 610.508 10.2246ZM615.059 5.95703C616.465 5.95703 617.227 7.10938 617.227 8.98438C617.227 9.05273 617.227 9.11133 617.227 9.16992L612.48 9.18945C612.598 7.03125 613.604 5.95703 615.059 5.95703ZM623.799 5.25391L620.576 5.63477V6.14258L621.279 6.31836C621.836 6.47461 621.914 6.5918 621.914 7.11914V13.5254C621.914 14.1406 621.768 14.2871 620.576 14.4238V15H625.303V14.4238C623.984 14.2871 623.838 14.1504 623.838 13.4082V7.75391C624.336 7.19727 625.518 6.81641 626.582 6.81641C626.973 6.81641 627.344 6.85547 627.539 6.91406C627.646 6.76758 627.734 6.49414 627.734 6.2207C627.734 5.67383 627.441 5.19531 626.699 5.19531C625.84 5.19531 624.971 5.89844 623.799 7.28516V5.25391ZM2.67578 37.3301C3.34961 37.3301 3.88672 36.8125 3.88672 36.1484C3.88672 35.4844 3.34961 34.9766 2.67578 34.9766C2.00195 34.9766 1.46484 35.4844 1.46484 36.1484C1.46484 36.8125 2.00195 37.3301 2.67578 37.3301ZM3.83789 39.2539L0.576172 39.6348V40.1426L1.2793 40.3184C1.83594 40.4746 1.91406 40.5918 1.91406 41.1191V47.5156C1.91406 48.1309 1.74805 48.2871 0.576172 48.4238V49H5.16602V48.4238C3.99414 48.2871 3.83789 48.1309 3.83789 47.5156V39.2539ZM9.44336 39.2539L6.2207 39.6348V40.1426L6.92383 40.3184C7.48047 40.4746 7.55859 40.5918 7.55859 41.1191V47.5156C7.55859 48.1309 7.39258 48.2871 6.2207 48.4238V49H10.7324V48.4238C9.61914 48.2871 9.48242 48.1504 9.48242 47.5645V41.373C9.87305 40.7383 10.6543 40.25 11.7578 40.25C13.1738 40.25 14.0332 41.0898 14.0332 42.7109V47.5645C14.0332 48.1504 13.8965 48.2871 12.7832 48.4238V49H17.2949V48.4238C16.1035 48.2871 15.9668 48.1309 15.9668 47.5156V42.2227C15.9668 40.2305 14.5996 39.1562 12.6367 39.1562C11.1523 39.1562 10 39.8496 9.44336 40.8066V39.2539ZM23.3789 49.1953C25.0098 49.1953 26.2988 48.5801 26.9629 47.7402V47.1543C26.3672 47.7207 25.4395 48.1016 24.4238 48.1016C22.2461 48.1016 20.7031 46.4609 20.7031 43.834C20.7031 41.4609 22.041 39.9863 23.8965 39.9863C24.5898 39.9863 25.1367 40.123 25.5371 40.4062C25.0684 40.4844 24.707 40.9238 24.707 41.4512C24.707 42.0469 25.166 42.5254 25.7812 42.5254C26.377 42.5254 26.8555 42.0566 26.8555 41.4121C26.8555 40.2109 25.8105 39.1562 23.6133 39.1562C20.8984 39.1562 18.6719 41.1582 18.6719 44.2246C18.6719 47.2324 20.7227 49.1953 23.3789 49.1953ZM28.4961 44.2246C28.4961 47.2812 30.5371 49.1953 33.2715 49.1953C34.9023 49.1953 36.2012 48.5801 36.8652 47.7305V47.1543C36.2793 47.7305 35.332 48.1016 34.3066 48.1016C32.0508 48.1016 30.5469 46.4121 30.459 43.8535H37.041C37.0605 43.6973 37.0703 43.4629 37.0703 43.248C37.0703 40.7676 35.625 39.166 33.0664 39.166C30.332 39.166 28.4961 41.2656 28.4961 44.2246ZM33.0469 39.957C34.4531 39.957 35.2148 41.1094 35.2148 42.9844C35.2148 43.0527 35.2148 43.1113 35.2148 43.1699L30.4688 43.1895C30.5859 41.0312 31.5918 39.957 33.0469 39.957ZM48.8574 44.0684C48.8574 40.9727 46.9922 39.1562 44.873 39.1562C43.457 39.1562 42.168 39.8691 41.6309 40.9141V39.2539L38.418 39.6348V40.1426L39.1113 40.3184C39.668 40.4746 39.7461 40.5918 39.7461 41.1191V52.0176C39.7461 52.6328 39.6094 52.7793 38.418 52.916V53.4922H43.1445V52.916C41.8164 52.7793 41.6699 52.6426 41.6699 51.9004V48.1211C42.1973 48.7363 43.125 49.1953 44.248 49.1953C46.8164 49.1953 48.8574 47.125 48.8574 44.0684ZM46.8457 44.2734C46.8457 46.7734 45.6055 48.3555 43.8281 48.3555C42.8125 48.3555 41.9922 47.8867 41.6699 47.291V41.4316C42.0898 40.6699 42.8906 40.25 43.916 40.25C45.6641 40.25 46.8457 41.793 46.8457 44.2734ZM51.543 46.3633C51.543 48.4922 52.7734 49.1953 54.1016 49.1953C55.0684 49.1953 56.084 48.7754 56.5039 48.3359V47.7598C56.1621 48.0039 55.6348 48.1895 55.0977 48.1895C54.1602 48.1895 53.4668 47.6719 53.4668 46.0605V40.1621L56.3477 40.2305V39.3516L53.4668 39.4395V37.5059H53.1934L50.2539 39.8301V40.2305H51.543V46.3633ZM62.5293 49.1953C65.3516 49.1953 67.5195 47.125 67.5195 44.1465C67.5195 41.1777 65.4004 39.1562 62.6562 39.1562C59.834 39.1562 57.6758 41.2266 57.6758 44.2148C57.6758 47.1738 59.7949 49.1953 62.5293 49.1953ZM62.6562 48.4043C60.9668 48.4043 59.7656 46.6855 59.7656 44.0488C59.7656 41.5391 60.791 39.957 62.5293 39.957C64.2188 39.957 65.4199 41.666 65.4199 44.3027C65.4199 46.8223 64.3945 48.4043 62.6562 48.4043ZM69.4922 41.9004C69.4922 43.4141 70.5859 44.2539 72.3438 44.7617L73.125 44.9961C74.4629 45.3867 75.0195 45.875 75.0195 46.7734C75.0195 47.7012 74.209 48.375 72.9395 48.375C71.5527 48.375 70.293 47.5254 69.9316 45.7969H69.3945L69.4824 48.3262C70.1758 48.7949 71.4551 49.166 72.959 49.166C74.9609 49.166 76.709 48.082 76.709 46.3242C76.709 44.752 75.6641 43.8633 73.8965 43.3555L73.125 43.1309C71.9043 42.7793 71.1816 42.3496 71.1816 41.4414C71.1816 40.5332 71.9727 39.957 73.2031 39.957C74.4824 39.957 75.498 40.748 75.7812 42.2715H76.3184L76.25 39.8398C75.7227 39.4883 74.6387 39.1562 73.1934 39.1562C71.0059 39.1562 69.4922 40.1816 69.4922 41.9004ZM86.2207 34.5078L82.959 34.8984V35.4062L83.6621 35.582C84.2188 35.7383 84.2969 35.8652 84.2969 36.3828V47.5156C84.2969 48.1309 84.1309 48.2871 82.959 48.4238V49H87.4707V48.4238C86.3574 48.2871 86.2207 48.1504 86.2207 47.5645V41.373C86.6113 40.7383 87.3926 40.25 88.4961 40.25C89.9121 40.25 90.7715 41.0898 90.7715 42.7109V47.5645C90.7715 48.1504 90.6348 48.2871 89.5215 48.4238V49H94.0332V48.4238C92.8418 48.2871 92.7051 48.1309 92.7051 47.5156V42.2227C92.7051 40.2305 91.3379 39.1562 89.375 39.1562C87.9102 39.1562 86.7871 39.8203 86.2207 40.7578V34.5078ZM97.1484 37.3301C97.8223 37.3301 98.3594 36.8125 98.3594 36.1484C98.3594 35.4844 97.8223 34.9766 97.1484 34.9766C96.4746 34.9766 95.9375 35.4844 95.9375 36.1484C95.9375 36.8125 96.4746 37.3301 97.1484 37.3301ZM98.3105 39.2539L95.0488 39.6348V40.1426L95.752 40.3184C96.3086 40.4746 96.3867 40.5918 96.3867 41.1191V47.5156C96.3867 48.1309 96.2207 48.2871 95.0488 48.4238V49H99.6387V48.4238C98.4668 48.2871 98.3105 48.1309 98.3105 47.5156V39.2539ZM103.916 39.2539L100.693 39.6348V40.1426L101.396 40.3184C101.953 40.4746 102.031 40.5918 102.031 41.1191V47.5156C102.031 48.1309 101.865 48.2871 100.693 48.4238V49H105.205V48.4238C104.092 48.2871 103.955 48.1504 103.955 47.5645V41.373C104.336 40.7383 105.068 40.25 106.143 40.25C107.529 40.25 108.32 41.0996 108.32 42.7305V47.5645C108.32 48.1504 108.184 48.2871 107.07 48.4238V49H111.504V48.4238C110.381 48.2871 110.244 48.1504 110.244 47.5645V42.0371C110.244 41.7441 110.225 41.4805 110.186 41.2461C110.596 40.6602 111.328 40.25 112.373 40.25C113.789 40.25 114.609 41.0996 114.609 42.7305V47.5645C114.609 48.1504 114.473 48.2871 113.359 48.4238V49H117.861V48.4238C116.689 48.2871 116.533 48.1309 116.533 47.5156V42.2812C116.533 40.25 115.195 39.1562 113.242 39.1562C111.777 39.1562 110.605 39.8691 110.039 40.8262C109.6 39.752 108.506 39.1562 107.031 39.1562C105.566 39.1562 104.473 39.8691 103.916 40.8066V39.2539ZM119.238 44.2246C119.238 47.2812 121.279 49.1953 124.014 49.1953C125.645 49.1953 126.943 48.5801 127.607 47.7305V47.1543C127.021 47.7305 126.074 48.1016 125.049 48.1016C122.793 48.1016 121.289 46.4121 121.201 43.8535H127.783C127.803 43.6973 127.812 43.4629 127.812 43.248C127.812 40.7676 126.367 39.166 123.809 39.166C121.074 39.166 119.238 41.2656 119.238 44.2246ZM123.789 39.957C125.195 39.957 125.957 41.1094 125.957 42.9844C125.957 43.0527 125.957 43.1113 125.957 43.1699L121.211 43.1895C121.328 41.0312 122.334 39.957 123.789 39.957ZM132.529 39.2539L129.307 39.6348V40.1426L130.01 40.3184C130.566 40.4746 130.645 40.5918 130.645 41.1191V47.5156C130.645 48.1309 130.479 48.2871 129.307 48.4238V49H133.818V48.4238C132.705 48.2871 132.568 48.1504 132.568 47.5645V41.373C132.959 40.7383 133.74 40.25 134.844 40.25C136.26 40.25 137.119 41.0898 137.119 42.7109V47.5645C137.119 48.1504 136.982 48.2871 135.869 48.4238V49H140.381V48.4238C139.189 48.2871 139.053 48.1309 139.053 47.5156V42.2227C139.053 40.2305 137.686 39.1562 135.723 39.1562C134.238 39.1562 133.086 39.8496 132.529 40.8066V39.2539ZM144.531 49.1953C145.957 49.1953 147.148 48.5508 147.666 47.7695C147.871 48.6582 148.564 49.1465 149.531 49.1465C150.205 49.1465 150.752 48.9316 151.074 48.707V48.1797C150.938 48.2383 150.752 48.2676 150.557 48.2676C149.971 48.2676 149.502 47.9355 149.502 47.0664V42.1543C149.502 40.084 148.086 39.1562 145.908 39.1562C143.75 39.1562 142.002 40.0742 142.002 41.373C142.002 41.9785 142.48 42.4277 143.076 42.4277C143.691 42.4277 144.16 41.9883 144.16 41.4121C144.16 40.9434 143.857 40.5527 143.467 40.416C143.936 40.1328 144.551 39.9863 145.225 39.9863C146.65 39.9863 147.617 40.6113 147.617 42.3984V43.2676L145.43 43.7461C142.793 44.3223 141.699 45.2207 141.699 46.7637C141.699 48.1992 142.91 49.1953 144.531 49.1953ZM143.652 46.4316C143.652 45.3379 144.336 44.6934 146.299 44.2539L147.617 43.9707V47.1738C147.178 47.8184 146.436 48.1895 145.527 48.1895C144.443 48.1895 143.652 47.5352 143.652 46.4316ZM152.207 44.2246C152.207 47.2812 154.248 49.1953 156.982 49.1953C158.613 49.1953 159.912 48.5801 160.576 47.7305V47.1543C159.99 47.7305 159.043 48.1016 158.018 48.1016C155.762 48.1016 154.258 46.4121 154.17 43.8535H160.752C160.771 43.6973 160.781 43.4629 160.781 43.248C160.781 40.7676 159.336 39.166 156.777 39.166C154.043 39.166 152.207 41.2656 152.207 44.2246ZM156.758 39.957C158.164 39.957 158.926 41.1094 158.926 42.9844C158.926 43.0527 158.926 43.1113 158.926 43.1699L154.18 43.1895C154.297 41.0312 155.303 39.957 156.758 39.957ZM167.49 49.1953C170.312 49.1953 172.48 47.125 172.48 44.1465C172.48 41.1777 170.361 39.1562 167.617 39.1562C164.795 39.1562 162.637 41.2266 162.637 44.2148C162.637 47.1738 164.756 49.1953 167.49 49.1953ZM167.617 48.4043C165.928 48.4043 164.727 46.6855 164.727 44.0488C164.727 41.5391 165.752 39.957 167.49 39.957C169.18 39.957 170.381 41.666 170.381 44.3027C170.381 46.8223 169.355 48.4043 167.617 48.4043ZM174.453 41.9004C174.453 43.4141 175.547 44.2539 177.305 44.7617L178.086 44.9961C179.424 45.3867 179.98 45.875 179.98 46.7734C179.98 47.7012 179.17 48.375 177.9 48.375C176.514 48.375 175.254 47.5254 174.893 45.7969H174.355L174.443 48.3262C175.137 48.7949 176.416 49.166 177.92 49.166C179.922 49.166 181.67 48.082 181.67 46.3242C181.67 44.752 180.625 43.8633 178.857 43.3555L178.086 43.1309C176.865 42.7793 176.143 42.3496 176.143 41.4414C176.143 40.5332 176.934 39.957 178.164 39.957C179.443 39.957 180.459 40.748 180.742 42.2715H181.279L181.211 39.8398C180.684 39.4883 179.6 39.1562 178.154 39.1562C175.967 39.1562 174.453 40.1816 174.453 41.9004ZM184.531 49.1562C185.234 49.1562 185.801 48.5703 185.801 47.8672C185.801 47.1543 185.234 46.5879 184.531 46.5879C183.838 46.5879 183.271 47.1543 183.271 47.8672C183.271 48.5703 183.848 49.1562 184.531 49.1562ZM203.662 46.5098L199.375 34.8789H198.037L193.828 46.2852C193.203 47.9844 192.939 48.2676 191.738 48.4238V49H195.977V48.4238C194.463 48.2285 194.287 47.8965 194.834 46.334L195.625 44.0488H200.566L201.426 46.5C201.924 47.9062 201.719 48.2383 200.264 48.4238V49H205.654V48.4238C204.521 48.2676 204.209 47.9941 203.662 46.5098ZM195.879 43.3066L198.066 36.9883L200.303 43.3066H195.879ZM209.404 34.5176L206.143 34.8984V35.4062L206.846 35.582C207.402 35.7383 207.48 35.8652 207.48 36.3828V47.5156C207.48 48.1309 207.314 48.2871 206.143 48.4238V49H210.732V48.4238C209.561 48.2871 209.404 48.1309 209.404 47.5156V34.5176ZM213.906 37.3301C214.58 37.3301 215.117 36.8125 215.117 36.1484C215.117 35.4844 214.58 34.9766 213.906 34.9766C213.232 34.9766 212.695 35.4844 212.695 36.1484C212.695 36.8125 213.232 37.3301 213.906 37.3301ZM215.068 39.2539L211.807 39.6348V40.1426L212.51 40.3184C213.066 40.4746 213.145 40.5918 213.145 41.1191V47.5156C213.145 48.1309 212.979 48.2871 211.807 48.4238V49H216.396V48.4238C215.225 48.2871 215.068 48.1309 215.068 47.5156V39.2539ZM217.812 44.2734C217.812 47.3789 219.678 49.1855 221.797 49.1855C223.213 49.1855 224.502 48.4824 225.039 47.4473L224.99 51.9004C224.99 52.6426 224.854 52.7793 223.525 52.916V53.4922H228.252V52.916C227.061 52.7793 226.924 52.6328 226.924 52.0176V39.3516H226.279L225.312 40.4941C224.805 39.752 223.76 39.1465 222.461 39.1465C219.863 39.1465 217.812 41.2168 217.812 44.2734ZM219.814 44.0781C219.814 41.5684 221.064 39.9863 222.871 39.9863C223.887 39.9863 224.658 40.4941 224.99 41.0508V46.9199C224.58 47.6719 223.77 48.0918 222.744 48.0918C220.996 48.0918 219.814 46.5586 219.814 44.0781ZM232.129 39.2539L228.867 39.6348V40.1426L229.57 40.3184C230.117 40.4746 230.205 40.5918 230.205 41.1191V46.0703C230.205 48.1113 231.543 49.1953 233.477 49.1953C234.941 49.1953 236.045 48.502 236.602 47.5449V49.0977L239.834 48.707V48.209L239.141 48.0234C238.584 47.877 238.506 47.75 238.506 47.2227V39.2539L235.244 39.6348V40.1426L235.947 40.3184C236.494 40.4746 236.572 40.5918 236.572 41.1191V46.9785C236.191 47.6133 235.43 48.1016 234.414 48.1016C232.959 48.1016 232.129 47.252 232.129 45.5918V39.2539ZM244.023 49.1953C245.449 49.1953 246.641 48.5508 247.158 47.7695C247.363 48.6582 248.057 49.1465 249.023 49.1465C249.697 49.1465 250.244 48.9316 250.566 48.707V48.1797C250.43 48.2383 250.244 48.2676 250.049 48.2676C249.463 48.2676 248.994 47.9355 248.994 47.0664V42.1543C248.994 40.084 247.578 39.1562 245.4 39.1562C243.242 39.1562 241.494 40.0742 241.494 41.373C241.494 41.9785 241.973 42.4277 242.568 42.4277C243.184 42.4277 243.652 41.9883 243.652 41.4121C243.652 40.9434 243.35 40.5527 242.959 40.416C243.428 40.1328 244.043 39.9863 244.717 39.9863C246.143 39.9863 247.109 40.6113 247.109 42.3984V43.2676L244.922 43.7461C242.285 44.3223 241.191 45.2207 241.191 46.7637C241.191 48.1992 242.402 49.1953 244.023 49.1953ZM243.145 46.4316C243.145 45.3379 243.828 44.6934 245.791 44.2539L247.109 43.9707V47.1738C246.67 47.8184 245.928 48.1895 245.02 48.1895C243.936 48.1895 243.145 47.5352 243.145 46.4316ZM254.561 39.2539L251.338 39.6348V40.1426L252.041 40.3184C252.598 40.4746 252.676 40.5918 252.676 41.1191V47.5156C252.676 48.1309 252.51 48.2871 251.338 48.4238V49H255.85V48.4238C254.736 48.2871 254.6 48.1504 254.6 47.5645V41.373C254.98 40.7383 255.713 40.25 256.787 40.25C258.174 40.25 258.965 41.0996 258.965 42.7305V47.5645C258.965 48.1504 258.828 48.2871 257.715 48.4238V49H262.148V48.4238C261.025 48.2871 260.889 48.1504 260.889 47.5645V42.0371C260.889 41.7441 260.869 41.4805 260.83 41.2461C261.24 40.6602 261.973 40.25 263.018 40.25C264.434 40.25 265.254 41.0996 265.254 42.7305V47.5645C265.254 48.1504 265.117 48.2871 264.004 48.4238V49H268.506V48.4238C267.334 48.2871 267.178 48.1309 267.178 47.5156V42.2812C267.178 40.25 265.84 39.1562 263.887 39.1562C262.422 39.1562 261.25 39.8691 260.684 40.8262C260.244 39.752 259.15 39.1562 257.676 39.1562C256.211 39.1562 255.117 39.8691 254.561 40.8066V39.2539ZM274.648 44.2734C274.648 47.3789 276.514 49.1855 278.633 49.1855C280.049 49.1855 281.338 48.4824 281.875 47.4473L281.826 51.9004C281.826 52.6426 281.689 52.7793 280.361 52.916V53.4922H285.088V52.916C283.896 52.7793 283.76 52.6328 283.76 52.0176V39.3516H283.115L282.148 40.4941C281.641 39.752 280.596 39.1465 279.297 39.1465C276.699 39.1465 274.648 41.2168 274.648 44.2734ZM276.65 44.0781C276.65 41.5684 277.9 39.9863 279.707 39.9863C280.723 39.9863 281.494 40.4941 281.826 41.0508V46.9199C281.416 47.6719 280.605 48.0918 279.58 48.0918C277.832 48.0918 276.65 46.5586 276.65 44.0781ZM288.965 39.2539L285.703 39.6348V40.1426L286.406 40.3184C286.953 40.4746 287.041 40.5918 287.041 41.1191V46.0703C287.041 48.1113 288.379 49.1953 290.312 49.1953C291.777 49.1953 292.881 48.502 293.438 47.5449V49.0977L296.67 48.707V48.209L295.977 48.0234C295.42 47.877 295.342 47.75 295.342 47.2227V39.2539L292.08 39.6348V40.1426L292.783 40.3184C293.33 40.4746 293.408 40.5918 293.408 41.1191V46.9785C293.027 47.6133 292.266 48.1016 291.25 48.1016C289.795 48.1016 288.965 47.252 288.965 45.5918V39.2539ZM299.824 37.3301C300.498 37.3301 301.035 36.8125 301.035 36.1484C301.035 35.4844 300.498 34.9766 299.824 34.9766C299.15 34.9766 298.613 35.4844 298.613 36.1484C298.613 36.8125 299.15 37.3301 299.824 37.3301ZM300.986 39.2539L297.725 39.6348V40.1426L298.428 40.3184C298.984 40.4746 299.062 40.5918 299.062 41.1191V47.5156C299.062 48.1309 298.896 48.2871 297.725 48.4238V49H302.314V48.4238C301.143 48.2871 300.986 48.1309 300.986 47.5156V39.2539ZM303.828 41.9004C303.828 43.4141 304.922 44.2539 306.68 44.7617L307.461 44.9961C308.799 45.3867 309.355 45.875 309.355 46.7734C309.355 47.7012 308.545 48.375 307.275 48.375C305.889 48.375 304.629 47.5254 304.268 45.7969H303.73L303.818 48.3262C304.512 48.7949 305.791 49.166 307.295 49.166C309.297 49.166 311.045 48.082 311.045 46.3242C311.045 44.752 310 43.8633 308.232 43.3555L307.461 43.1309C306.24 42.7793 305.518 42.3496 305.518 41.4414C305.518 40.5332 306.309 39.957 307.539 39.957C308.818 39.957 309.834 40.748 310.117 42.2715H310.654L310.586 39.8398C310.059 39.4883 308.975 39.1562 307.529 39.1562C305.342 39.1562 303.828 40.1816 303.828 41.9004ZM327.588 44.0684C327.588 40.9727 325.723 39.1562 323.604 39.1562C322.188 39.1562 320.898 39.8691 320.361 40.9141V39.2539L317.148 39.6348V40.1426L317.842 40.3184C318.398 40.4746 318.477 40.5918 318.477 41.1191V52.0176C318.477 52.6328 318.34 52.7793 317.148 52.916V53.4922H321.875V52.916C320.547 52.7793 320.4 52.6426 320.4 51.9004V48.1211C320.928 48.7363 321.855 49.1953 322.979 49.1953C325.547 49.1953 327.588 47.125 327.588 44.0684ZM325.576 44.2734C325.576 46.7734 324.336 48.3555 322.559 48.3555C321.543 48.3555 320.723 47.8867 320.4 47.291V41.4316C320.82 40.6699 321.621 40.25 322.646 40.25C324.395 40.25 325.576 41.793 325.576 44.2734ZM334.326 49.1953C337.148 49.1953 339.316 47.125 339.316 44.1465C339.316 41.1777 337.197 39.1562 334.453 39.1562C331.631 39.1562 329.473 41.2266 329.473 44.2148C329.473 47.1738 331.592 49.1953 334.326 49.1953ZM334.453 48.4043C332.764 48.4043 331.562 46.6855 331.562 44.0488C331.562 41.5391 332.588 39.957 334.326 39.957C336.016 39.957 337.217 41.666 337.217 44.3027C337.217 46.8223 336.191 48.4043 334.453 48.4043ZM341.289 41.9004C341.289 43.4141 342.383 44.2539 344.141 44.7617L344.922 44.9961C346.26 45.3867 346.816 45.875 346.816 46.7734C346.816 47.7012 346.006 48.375 344.736 48.375C343.35 48.375 342.09 47.5254 341.729 45.7969H341.191L341.279 48.3262C341.973 48.7949 343.252 49.166 344.756 49.166C346.758 49.166 348.506 48.082 348.506 46.3242C348.506 44.752 347.461 43.8633 345.693 43.3555L344.922 43.1309C343.701 42.7793 342.979 42.3496 342.979 41.4414C342.979 40.5332 343.77 39.957 345 39.957C346.279 39.957 347.295 40.748 347.578 42.2715H348.115L348.047 39.8398C347.52 39.4883 346.436 39.1562 344.99 39.1562C342.803 39.1562 341.289 40.1816 341.289 41.9004ZM353.008 39.2539L349.746 39.6348V40.1426L350.449 40.3184C350.996 40.4746 351.084 40.5918 351.084 41.1191V46.0703C351.084 48.1113 352.422 49.1953 354.355 49.1953C355.82 49.1953 356.924 48.502 357.48 47.5449V49.0977L360.713 48.707V48.209L360.02 48.0234C359.463 47.877 359.385 47.75 359.385 47.2227V39.2539L356.123 39.6348V40.1426L356.826 40.3184C357.373 40.4746 357.451 40.5918 357.451 41.1191V46.9785C357.07 47.6133 356.309 48.1016 355.293 48.1016C353.838 48.1016 353.008 47.252 353.008 45.5918V39.2539ZM362.129 44.2246C362.129 47.2812 364.17 49.1953 366.904 49.1953C368.535 49.1953 369.834 48.5801 370.498 47.7305V47.1543C369.912 47.7305 368.965 48.1016 367.939 48.1016C365.684 48.1016 364.18 46.4121 364.092 43.8535H370.674C370.693 43.6973 370.703 43.4629 370.703 43.248C370.703 40.7676 369.258 39.166 366.699 39.166C363.965 39.166 362.129 41.2656 362.129 44.2246ZM366.68 39.957C368.086 39.957 368.848 41.1094 368.848 42.9844C368.848 43.0527 368.848 43.1113 368.848 43.1699L364.102 43.1895C364.219 41.0312 365.225 39.957 366.68 39.957ZM375.42 39.2539L372.197 39.6348V40.1426L372.9 40.3184C373.457 40.4746 373.535 40.5918 373.535 41.1191V47.5254C373.535 48.1406 373.389 48.2871 372.197 48.4238V49H376.924V48.4238C375.605 48.2871 375.459 48.1504 375.459 47.4082V41.7539C375.957 41.1973 377.139 40.8164 378.203 40.8164C378.594 40.8164 378.965 40.8555 379.16 40.9141C379.268 40.7676 379.355 40.4941 379.355 40.2207C379.355 39.6738 379.062 39.1953 378.32 39.1953C377.461 39.1953 376.592 39.8984 375.42 41.2852V39.2539ZM380.117 44.2246C380.117 47.2812 382.158 49.1953 384.893 49.1953C386.523 49.1953 387.822 48.5801 388.486 47.7305V47.1543C387.9 47.7305 386.953 48.1016 385.928 48.1016C383.672 48.1016 382.168 46.4121 382.08 43.8535H388.662C388.682 43.6973 388.691 43.4629 388.691 43.248C388.691 40.7676 387.246 39.166 384.688 39.166C381.953 39.166 380.117 41.2656 380.117 44.2246ZM384.668 39.957C386.074 39.957 386.836 41.1094 386.836 42.9844C386.836 43.0527 386.836 43.1113 386.836 43.1699L382.09 43.1895C382.207 41.0312 383.213 39.957 384.668 39.957ZM398.213 34.5176L394.951 34.8984V35.4062L395.654 35.582C396.211 35.7383 396.289 35.8652 396.289 36.3828V47.5156C396.289 48.1309 396.123 48.2871 394.951 48.4238V49H399.541V48.4238C398.369 48.2871 398.213 48.1309 398.213 47.5156V34.5176ZM402.715 37.3301C403.389 37.3301 403.926 36.8125 403.926 36.1484C403.926 35.4844 403.389 34.9766 402.715 34.9766C402.041 34.9766 401.504 35.4844 401.504 36.1484C401.504 36.8125 402.041 37.3301 402.715 37.3301ZM403.877 39.2539L400.615 39.6348V40.1426L401.318 40.3184C401.875 40.4746 401.953 40.5918 401.953 41.1191V47.5156C401.953 48.1309 401.787 48.2871 400.615 48.4238V49H405.205V48.4238C404.033 48.2871 403.877 48.1309 403.877 47.5156V39.2539ZM406.738 42.5059C406.738 44.0391 407.754 45.084 409.141 45.4453C407.764 45.8262 406.934 46.5293 406.934 47.5059C406.924 48.502 407.842 49.1172 409.082 49.1758C407.256 49.4785 406.318 50.2598 406.318 51.2852C406.318 52.7695 408.047 53.7852 410.908 53.7852C413.701 53.7852 415.801 52.3691 415.801 50.3379C415.801 48.668 414.502 47.7402 412.236 47.7402H410.098C409.053 47.7402 408.496 47.4082 408.496 46.7734C408.496 46.2559 408.877 45.8555 409.727 45.6211C410.215 45.6992 410.557 45.7383 410.889 45.7383C412.988 45.7383 414.922 44.4785 414.922 42.418C414.922 41.4219 414.434 40.543 413.662 40.0938L416.24 40.2207V39.3516L412.842 39.5273C412.314 39.3027 411.621 39.1562 410.85 39.1562C408.574 39.1562 406.738 40.4941 406.738 42.5059ZM408.682 42.3984C408.682 40.9141 409.502 39.8789 410.781 39.8789C412.158 39.8789 412.988 40.9238 412.988 42.5059C412.988 44 412.1 45.0156 410.889 45.0156C409.609 45.0156 408.682 44.0293 408.682 42.3984ZM408.018 51.041C408.018 50.1523 408.574 49.5176 409.648 49.3418H411.914C413.496 49.3418 414.17 49.9375 414.17 50.9043C414.17 52.1445 412.9 52.9844 410.967 52.9844C409.092 52.9844 408.018 52.1641 408.018 51.041ZM420.059 39.2539L416.797 39.6348V40.1426L417.5 40.3184C418.047 40.4746 418.135 40.5918 418.135 41.1191V46.0703C418.135 48.1113 419.473 49.1953 421.406 49.1953C422.871 49.1953 423.975 48.502 424.531 47.5449V49.0977L427.764 48.707V48.209L427.07 48.0234C426.514 47.877 426.436 47.75 426.436 47.2227V39.2539L423.174 39.6348V40.1426L423.877 40.3184C424.424 40.4746 424.502 40.5918 424.502 41.1191V46.9785C424.121 47.6133 423.359 48.1016 422.344 48.1016C420.889 48.1016 420.059 47.252 420.059 45.5918V39.2539ZM432.08 34.5176L428.818 34.8984V35.4062L429.521 35.582C430.078 35.7383 430.156 35.8652 430.156 36.3828V47.5156C430.156 48.1309 429.99 48.2871 428.818 48.4238V49H433.408V48.4238C432.236 48.2871 432.08 48.1309 432.08 47.5156V34.5176ZM437.617 49.1953C439.043 49.1953 440.234 48.5508 440.752 47.7695C440.957 48.6582 441.65 49.1465 442.617 49.1465C443.291 49.1465 443.838 48.9316 444.16 48.707V48.1797C444.023 48.2383 443.838 48.2676 443.643 48.2676C443.057 48.2676 442.588 47.9355 442.588 47.0664V42.1543C442.588 40.084 441.172 39.1562 438.994 39.1562C436.836 39.1562 435.088 40.0742 435.088 41.373C435.088 41.9785 435.566 42.4277 436.162 42.4277C436.777 42.4277 437.246 41.9883 437.246 41.4121C437.246 40.9434 436.943 40.5527 436.553 40.416C437.021 40.1328 437.637 39.9863 438.311 39.9863C439.736 39.9863 440.703 40.6113 440.703 42.3984V43.2676L438.516 43.7461C435.879 44.3223 434.785 45.2207 434.785 46.7637C434.785 48.1992 435.996 49.1953 437.617 49.1953ZM436.738 46.4316C436.738 45.3379 437.422 44.6934 439.385 44.2539L440.703 43.9707V47.1738C440.264 47.8184 439.521 48.1895 438.613 48.1895C437.529 48.1895 436.738 47.5352 436.738 46.4316ZM446.875 49.1562C447.578 49.1562 448.145 48.5703 448.145 47.8672C448.145 47.1543 447.578 46.5879 446.875 46.5879C446.182 46.5879 445.615 47.1543 445.615 47.8672C445.615 48.5703 446.191 49.1562 446.875 49.1562Z" fill="black"/>
</svg>
